<?xml version="1.0" encoding="utf-8"?>
<!-- Generator: Adobe Illustrator 23.1.1, SVG Export Plug-In . SVG Version: 6.00 Build 0)  -->
<svg version="1.1" id="Ebene_1" xmlns="http://www.w3.org/2000/svg" xmlns:xlink="http://www.w3.org/1999/xlink" x="0px" y="0px"
	 viewBox="0 0 283.46 283.46" style="enable-background:new 0 0 283.46 283.46;" xml:space="preserve">
<style type="text/css">
	.st0{stroke:#000000;stroke-miterlimit:10;}
	.st1{fill:#6A1700;stroke:#7F0A00;stroke-width:2;stroke-miterlimit:10;}
	.st2{fill:none;}
	.st3{stroke:#7F0A00;stroke-miterlimit:10;}
	.st4{stroke:#FFFFFF;stroke-width:0.25;stroke-miterlimit:10;}
</style>
<rect class="st0" width="283.46" height="283.46"/>
<circle class="st1" cx="141.73" cy="139.24" r="119.52"/>
<g>
	<rect x="6.72" y="115.27" class="st2" width="270.03" height="33.02"/>
	<path class="st3" d="M44.88,126.16c3.72,1.26,5.58,4.01,5.58,8.24c0,5.7-4.11,8.55-12.33,8.55H12.16v-32.58h26.33
		c3.3,0,5.9,0.81,7.79,2.43c1.89,1.62,2.83,3.78,2.83,6.48C49.1,122.25,47.69,124.54,44.88,126.16z M38.57,124
		c1.5,0,2.75-0.43,3.76-1.29c1-0.86,1.51-1.91,1.51-3.14c0-1.33-0.45-2.38-1.35-3.17c-0.9-0.78-2.13-1.18-3.69-1.18H17.56V124H38.57
		z M38.17,138.09c4.5,0,6.75-1.48,6.75-4.45c0-3.18-1.97-4.77-5.9-4.77H17.56v9.23H38.17z"/>
	<path class="st3" d="M90.86,133.86c0,2.91-1.46,5.29-4.36,7.13c-2.91,1.85-6.81,2.77-11.7,2.77c-4.92,0-8.84-0.92-11.75-2.77
		c-2.91-1.85-4.36-4.22-4.36-7.13v-18.58h5.4v17.5c0,4.08,3.57,6.12,10.71,6.12c7.11,0,10.67-2.04,10.67-6.12v-17.5h5.4V133.86z"/>
	<path class="st3" d="M132.58,142.95h-6.19l-7.24-10.17H105.4v10.17H100v-27.67h22.36c2.94,0,5.28,0.79,7.02,2.38
		c1.74,1.59,2.61,3.72,2.61,6.39c0,4.59-2.29,7.4-6.88,8.42L132.58,142.95z M121.55,127.92c3.27,0,4.9-1.26,4.9-3.78
		c0-2.67-1.74-4.01-5.22-4.01H105.4v7.79H121.55z"/>
	<path class="st3" d="M172.49,142.95h-8.06l-18.81-23.08v23.08h-5.4v-27.67h8.05l18.82,23.1v-23.1h5.4V142.95z"/>
	<path class="st3" d="M187.34,142.95h-5.4v-27.67h5.4V142.95z"/>
	<path class="st3" d="M229.06,142.95H221l-18.81-23.08v23.08h-5.4v-27.67h8.05l18.82,23.1v-23.1h5.4V142.95z"/>
	<path class="st3" d="M273.07,127.83v0.85c0,4.49-1.64,8.12-4.93,10.9c-3.29,2.78-7.66,4.17-13.12,4.17
		c-4.92,0-9.04-1.21-12.38-3.65c-3.87-2.82-5.81-6.51-5.81-11.07c0-4.5,1.94-8.16,5.81-10.98c3.39-2.49,7.62-3.74,12.69-3.74
		c6.12,0,11.19,2.15,15.21,6.44l-5.09,2.52c-2.83-2.73-6.31-4.09-10.46-4.09c-3.67,0-6.69,0.93-9.06,2.8
		c-2.37,1.86-3.56,4.21-3.56,7.04c0,2.92,1.16,5.29,3.47,7.13c2.31,1.83,5.37,2.75,9.15,2.75c5.68,0,9.45-2.07,11.32-6.21h-12.46
		v-4.86H273.07z"/>
</g>
<g>
	<rect x="68.01" y="154.43" class="st2" width="147.44" height="26.79"/>
	<path class="st4" d="M94.63,154.4H83.56v19.71h-3.84V154.4H68.65v-3.46h25.98V154.4z"/>
	<path class="st4" d="M123.34,164.22c0,3.22-1.38,5.84-4.13,7.87c-2.35,1.73-5.28,2.59-8.8,2.59c-3.52,0-6.46-0.86-8.83-2.59
		c-2.75-2.01-4.13-4.63-4.13-7.87c0-3.2,1.39-5.8,4.16-7.81c2.43-1.77,5.37-2.66,8.8-2.66c3.41,0,6.34,0.89,8.77,2.66
		C121.95,158.44,123.34,161.04,123.34,164.22z M119.34,164.2c0-2.03-0.83-3.7-2.5-5.02c-1.67-1.32-3.81-1.97-6.44-1.97
		c-2.65,0-4.81,0.66-6.49,1.99c-1.68,1.33-2.52,2.99-2.52,5c0,2.1,0.82,3.79,2.47,5.08c1.65,1.29,3.83,1.94,6.54,1.94
		c2.69,0,4.86-0.65,6.49-1.94C118.52,167.99,119.34,166.3,119.34,164.2z"/>
	<path class="st4" d="M151.53,167.64c0,2.07-1.04,3.76-3.1,5.07c-2.07,1.31-4.84,1.97-8.32,1.97c-3.5,0-6.28-0.66-8.35-1.97
		c-2.07-1.31-3.1-3-3.1-5.07v-13.22h3.84v12.45c0,2.9,2.54,4.35,7.62,4.35c5.06,0,7.58-1.45,7.58-4.35v-12.45h3.84V167.64z"/>
	<path class="st4" d="M181.58,159.17l-3.52,1.22c-2.11-2.09-4.79-3.14-8.03-3.14c-2.79,0-5.02,0.64-6.69,1.93
		c-1.66,1.29-2.5,2.95-2.5,5c0,2.11,0.83,3.8,2.5,5.08s3.92,1.92,6.75,1.92c3.29,0,5.96-1.07,8.03-3.2l3.3,1.76
		c-2.9,3.26-6.71,4.9-11.42,4.9c-3.93,0-7.1-0.98-9.52-2.93s-3.63-4.45-3.63-7.5c0-3.18,1.38-5.77,4.13-7.78
		c2.39-1.75,5.32-2.62,8.8-2.62C174.66,153.79,178.59,155.58,181.58,159.17z"/>
	<path class="st4" d="M209.83,174.11h-3.84v-8.51h-15.2v8.51h-3.84v-19.68h3.84v7.71h15.2v-7.71h3.84V174.11z"/>
</g>
<g>
</g>
<g>
</g>
<g>
</g>
<g>
</g>
<g>
</g>
</svg>
