<?xml version="1.0" encoding="utf-8"?>
<!-- Generator: Adobe Illustrator 23.1.1, SVG Export Plug-In . SVG Version: 6.00 Build 0)  -->
<svg version="1.1" id="Ebene_1" xmlns="http://www.w3.org/2000/svg" xmlns:xlink="http://www.w3.org/1999/xlink" x="0px" y="0px"
	 viewBox="0 0 283.46 283.46" style="enable-background:new 0 0 283.46 283.46;" xml:space="preserve">
<style type="text/css">
	.st0{stroke:#000000;stroke-miterlimit:10;}
	.st1{fill:#941900;}
	.st2{fill:#7F4000;}
	.st3{fill:#42210B;}
	.st4{fill:#8A0023;}
	.st5{fill:#4D4D4D;}
</style>
<rect class="st0" width="283.46" height="283.46"/>
<g>
	<g>
		<path d="M212.94,102.86c1.93,0,1.93-3,0-3C211.01,99.86,211,102.86,212.94,102.86L212.94,102.86z"/>
	</g>
</g>
<g>
	<path class="st1" d="M142.06,108.27c-8.03,0.74-15.68-3-23.28-5.7c-7.59-2.71-16.61-4.27-23.28,0.26
		c-5.59,3.81-7.9,10.82-9.58,17.38c-1.96,7.62-3.58,15.56-2.23,23.31c1.64,9.39,7.44,17.43,13.08,25.12
		c1.83,2.5,3.71,5.04,6.24,6.82c3.55,2.5,7.99,3.25,12.29,3.87c12.46,1.79,25.33,2.98,37.5-0.23c12.17-3.21,23.65-11.61,27.36-23.63
		c1.75-5.66,1.74-11.85,4.34-17.17c0.9-1.85,2.11-3.56,2.77-5.51c0.83-2.45,0.75-5.11,0.6-7.7c-0.33-5.58-0.94-11.15-1.82-16.67
		c-0.28-1.78-0.62-3.61-1.61-5.12c-1.1-1.67-2.89-2.75-4.7-3.59c-12.07-5.63-27.7-2.3-36.42,7.77"/>
	<g>
		<path class="st1" d="M142.06,106.77c-11.51,0.94-21.49-6.67-32.67-8.07c-5.01-0.63-10.37-0.07-14.64,2.83
			c-4.05,2.76-6.52,7.02-8.21,11.52c-1.93,5.12-3.2,10.63-4.08,16.01c-0.96,5.9-1.13,11.92,0.44,17.74
			c1.44,5.33,4.11,10.26,7.13,14.86c1.5,2.28,3.09,4.49,4.69,6.69c1.61,2.2,3.19,4.48,5.15,6.4c3.99,3.91,9.26,5.17,14.62,5.95
			c6.05,0.89,12.14,1.63,18.25,1.84c11.05,0.37,22.38-1.17,32.07-6.79c8.21-4.76,14.91-12.23,17.27-21.57
			c1.38-5.48,1.58-11.27,4.34-16.32c1.38-2.52,2.62-4.86,2.94-7.76c0.34-3.12-0.03-6.35-0.3-9.47c-0.26-3.08-0.62-6.16-1.04-9.22
			c-0.39-2.78-0.6-5.84-1.96-8.36c-2.26-4.17-7.96-6.02-12.32-6.92c-9.07-1.86-19,0.19-26.48,5.7c-1.83,1.34-3.5,2.85-5,4.56
			c-1.27,1.45,0.84,3.58,2.12,2.12c5.7-6.49,14.18-10.07,22.79-10.06c4.3,0.01,8.69,0.91,12.54,2.87c2.37,1.21,3.89,2.77,4.52,5.4
			c0.66,2.77,0.95,5.67,1.28,8.5c0.35,2.94,0.62,5.89,0.81,8.84c0.18,2.75,0.42,5.63-0.48,8.29c-0.85,2.49-2.5,4.64-3.46,7.09
			c-0.94,2.42-1.45,4.97-1.92,7.52c-0.87,4.78-1.74,9.42-4.21,13.68c-2.21,3.81-5.28,7.11-8.79,9.76
			c-7.99,6.01-17.76,8.61-27.64,9.08c-5.67,0.27-11.36-0.09-16.99-0.71c-5.19-0.58-10.82-0.96-15.72-2.86
			c-4.93-1.91-7.81-6.36-10.79-10.48c-3.01-4.16-5.93-8.43-8.14-13.08c-2.34-4.93-3.55-10.18-3.45-15.64
			c0.11-5.66,1.38-11.23,2.81-16.68c1.15-4.4,2.53-8.97,5.33-12.63c2.86-3.75,7.12-5.72,11.78-5.94
			c10.49-0.49,19.54,5.82,29.55,7.77c2.6,0.51,5.24,0.73,7.88,0.51C143.97,109.62,143.98,106.62,142.06,106.77L142.06,106.77z"/>
	</g>
</g>
<g>
	<g>
		<path class="st2" d="M169.34,119.9c2.68,0.57,4.12,3.19,4.65,5.69c0.73,3.41,0.02,6.95,0.67,10.39c0.16,0.84,1.49,0.64,1.47-0.2
			c-0.04-1.79,0.92-3.35,1.46-5.01c0.52-1.6,0.52-3.26-0.1-4.84c-1.35-3.46-4.62-5.35-7.73-7.02c-0.85-0.46-1.61,0.84-0.76,1.3
			c2.86,1.53,6.17,3.3,7.21,6.62c1,3.2-1.65,5.8-1.59,8.96c0.49-0.07,0.98-0.13,1.47-0.2c-0.7-3.72,0.2-7.62-0.9-11.28
			c-0.8-2.66-2.61-5.23-5.47-5.83C168.8,118.26,168.39,119.7,169.34,119.9L169.34,119.9z"/>
	</g>
</g>
<g>
	<g>
		<path class="st2" d="M174.8,124.61c0.24,1.34,0.49,2.69,0.73,4.03c0.1,0.55,0.3,1.17,0.28,1.73c0,0.11-0.02,0.11-0.02,0.22
			c0.02-0.01,0.05-0.03,0.07-0.04c-0.08,0.04-0.08,0.05,0,0.01c-0.09,0.02-0.09,0.02,0,0.01c-0.09,0-0.09,0,0,0.01
			c0.07,0.05,0.17,0.1,0.19,0.2c-0.23-0.94-1.68-0.54-1.45,0.4c0.2,0.79,1.1,1.07,1.8,0.77c0.88-0.37,0.97-1.36,0.84-2.2
			c-0.28-1.85-0.67-3.69-1-5.54c-0.07-0.4-0.56-0.62-0.92-0.52C174.91,123.8,174.73,124.21,174.8,124.61L174.8,124.61z"/>
	</g>
</g>
<g>
	<g>
		<path class="st2" d="M91.8,153.42c1.37,3.46,3.14,6.74,5.34,9.74c1.06,1.45,2.21,2.83,3.44,4.14c1.12,1.18,2.41,2.4,4.15,2.25
			c0.44-0.04,0.7-0.32,0.75-0.75c0.22-1.76-1.04-3.06-2.28-4.11c-1.66-1.4-3.04-2.84-4.17-4.71c-2.47-4.09-4.34-8.61-6.43-12.9
			c-0.23-0.48-1.07-0.5-1.3,0c-1.02,2.21-0.4,4.47,0.72,6.53c1.35,2.48,3.13,4.77,4.72,7.1c1.45,2.13,2.8,4.4,4.49,6.36
			c1.37,1.59,3.1,2.83,5.26,2.86c0.68,0.01,0.94-0.81,0.53-1.28c-2.59-2.95-5.04-6.02-7.33-9.22c-1.1-1.54-2.17-3.09-3.19-4.68
			c-1.03-1.59-1.96-3.2-2.29-5.09c-0.17-0.95-1.62-0.55-1.45,0.4c0.67,3.75,3.48,7.12,5.64,10.13c2.36,3.3,4.89,6.47,7.57,9.52
			c0.18-0.43,0.35-0.85,0.53-1.28c-1.93-0.02-3.37-1.38-4.51-2.8c-1.44-1.78-2.65-3.78-3.94-5.68c-1.32-1.93-2.67-3.85-3.94-5.81
			c-1.16-1.8-2.49-4.15-1.49-6.3c-0.43,0-0.86,0-1.3,0c1.99,4.09,3.81,8.33,6.06,12.29c0.93,1.64,2.03,3.22,3.43,4.5
			c1.21,1.11,3.42,2.28,3.18,4.18c0.25-0.25,0.5-0.5,0.75-0.75c-1.69,0.15-2.97-1.63-3.97-2.77c-1.07-1.2-2.06-2.46-2.98-3.78
			c-1.83-2.64-3.36-5.49-4.55-8.48C92.9,152.14,91.45,152.53,91.8,153.42L91.8,153.42z"/>
	</g>
</g>
<g>
	<g>
		<path class="st2" d="M128.87,104.48c2.49,1.89,5.45,3,8.57,3.24c1.36,0.1,3.13,0.17,4.42-0.35c0.43-0.17,0.75-0.45,0.99-0.84
			c0.17-0.29,0.46-1.98,0.87-1.81c0.73,0.3,1.21-0.76,0.73-1.25c-2.45-2.5-6.56-0.44-9.49-0.23c-2.21,0.16-4.44,0.09-6.66,0.09
			c-1.03,0-2.07,0-3.1,0c-0.17,0-1.53,0.02-1-0.01c0.54-0.03,1.06,0.04,1.6,0.08c7.86,0.56,15.57-3.92,23.37-1.71
			c0.07-0.49,0.13-0.98,0.2-1.47c-2.05-0.14-4.38-0.17-6,1.3c-0.85,0.77-1.24,1.85-1.88,2.78c-0.83,1.22-2.07,1.92-3.51,2.17
			c0.28,0.37,0.56,0.73,0.85,1.1c0.77-1.62,3.75-1.47,5.24-2.09c1.83-0.76,3.33-2.04,4.48-3.64c0.23-0.32,0.07-0.85-0.27-1.03
			c-2.17-1.11-4.32,0.19-6.45,0.78c-2.73,0.76-5.6,0.92-8.4,0.52c-0.07,0.49-0.13,0.98-0.2,1.47c2.85,0.17,5.69,0.14,8.54-0.09
			c-0.07-0.49-0.13-0.98-0.2-1.47c-2.39,0.7-4.79,1.4-7.18,2.09c-0.36,0.1-0.68,0.54-0.52,0.92c0.77,1.93,2.84,3.2,4.92,2.58
			c2.06-0.61,3.11-2.87,2.66-4.88c-0.21-0.94-1.66-0.54-1.45,0.4c0.67,2.96-3.54,4.37-4.69,1.5c-0.17,0.31-0.35,0.62-0.52,0.92
			c2.39-0.7,4.79-1.4,7.18-2.09c0.78-0.23,0.67-1.54-0.2-1.47c-2.84,0.23-5.69,0.26-8.54,0.09c-0.83-0.05-1.04,1.35-0.2,1.47
			c2.33,0.34,4.65,0.35,6.98-0.03c1.2-0.2,2.38-0.5,3.53-0.9c1.24-0.43,2.71-1.18,3.99-0.52c-0.09-0.34-0.18-0.68-0.27-1.03
			c-1.38,1.92-3.37,3.11-5.67,3.57c-1.55,0.31-3.29,0.58-4.04,2.16c-0.29,0.62,0.19,1.22,0.85,1.1c2.15-0.38,3.75-1.68,4.82-3.55
			c0.66-1.16,1.27-2.12,2.64-2.5c1.14-0.32,2.37-0.22,3.54-0.15c0.86,0.06,1-1.25,0.2-1.47c-4.24-1.2-8.57-0.5-12.81,0.35
			c-2.31,0.46-4.62,0.98-6.96,1.22c-1.12,0.11-2.24,0.17-3.37,0.13c-0.96-0.04-2.08-0.36-2.98,0.09c-1.06,0.52-1.36,2.23-0.09,2.72
			c0.87,0.33,2.12,0.09,3.03,0.09c1.27,0,2.54,0,3.81,0c2.44,0,4.89,0.04,7.3-0.41c1.8-0.34,4.37-1.43,5.88,0.11
			c0.24-0.42,0.49-0.84,0.73-1.25c-0.95-0.39-1.82,0.3-2.18,1.17c-0.3,0.73-0.2,1.36-1.07,1.64c-0.71,0.23-1.68,0.19-2.42,0.18
			c-3.21-0.03-6.27-1.14-8.82-3.08C128.85,102.6,128.11,103.9,128.87,104.48L128.87,104.48z"/>
	</g>
</g>
<g>
	<g>
		<path class="st3" d="M136.88,104.96c1.51-5.26,4.56-9.94,8.74-13.47c0.7-0.59-0.19-1.51-0.91-1.18c-1.17,0.54-1.97,1.54-2.61,2.62
			c-0.82,1.39-1.53,2.85-2.29,4.27c-0.7,1.32-1.6,2.7-1.84,4.2c-0.12,0.73-0.06,1.45,0.2,2.14c0.26,0.72,0.64,1.37,0.76,2.14
			c0.17-0.31,0.35-0.62,0.52-0.92c-0.87,0.14-1.37-0.93-1.2-1.64c0.17-0.76,0.79-1.31,1.43-1.7c-0.25-0.43-0.5-0.86-0.76-1.3
			c-1.46,1-1.94,2.93-1.05,4.48c0.36,0.61,1.46,0.39,1.4-0.38c-0.16-2.01-0.31-4.02-0.47-6.04c-0.02-0.31-0.23-1.14-0.08-1.42
			c0.13-0.24,0.74-0.37,0.98-0.57c0.5-0.42,0.71-1.01,0.98-1.59c0.65-1.43,2.25-1.47,3.3-2.48c0.94-0.9,1.35-2.34,0.41-3.38
			c-0.65-0.72-1.71,0.35-1.06,1.06c0.42,0.46-0.3,1.21-0.66,1.45c-0.54,0.36-1.19,0.56-1.75,0.89c-0.56,0.33-1.03,0.76-1.36,1.33
			c-0.28,0.49-0.39,1.23-0.86,1.59c-0.51,0.39-1.09,0.41-1.36,1.1c-0.28,0.71-0.07,1.61-0.02,2.34c0.15,1.91,0.3,3.81,0.45,5.72
			c0.47-0.13,0.93-0.25,1.4-0.38c-0.47-0.81-0.28-1.88,0.51-2.43c0.79-0.54,0.08-1.8-0.76-1.3c-1.27,0.76-2.39,2.1-2.2,3.68
			c0.19,1.55,1.59,2.65,3.12,2.4c0.43-0.07,0.58-0.56,0.52-0.92c-0.22-1.3-1.18-2.38-0.91-3.76c0.27-1.37,1.14-2.63,1.79-3.85
			c0.65-1.23,1.28-2.47,1.96-3.68c0.56-0.99,1.19-1.91,2.25-2.4c-0.3-0.39-0.61-0.79-0.91-1.18c-4.36,3.69-7.55,8.64-9.12,14.14
			C135.17,105.49,136.62,105.88,136.88,104.96L136.88,104.96z"/>
	</g>
</g>
<g>
	<g>
		<path class="st4" d="M114.79,101.6c3.38-0.02,6.74-0.32,10.07-0.89c1.66-0.28,3.31-0.64,4.94-1.07c0.75-0.2,1.5-0.41,2.24-0.63
			c0.35-0.11,1.83-0.79,2.1-0.68c-0.09-0.04-0.09-0.15-0.02,0.08c0.08,0.24-0.02,0.5,0.01,0.74c-0.01,0.04-0.01,0.07-0.02,0.11
			c-0.17,0.51,0.07,0.42,0.73-0.26c-0.05-0.06-0.91-0.12-0.97-0.13c-1.63-0.28-3.18-0.91-4.8-1.19c-1.74-0.3-2.73,0.62-4.2,1.3
			c-1.3,0.61-2.77,0.72-4.17,0.4c-0.13,0.98-0.27,1.96-0.4,2.95c2.57-0.12,5.14-0.21,7.71-0.36c1.01-0.06,1.95-0.19,2.76-0.83
			c0.4-0.31,0.69-0.7,0.98-1.11c0.1-0.14,0.19-0.35,0.32-0.46c0.27-0.24,0.1-0.11,0.16-0.09c0.75,0.32,1.64-0.34,1.85-1.05
			c0.25-0.86-0.3-1.53-1.05-1.85c-1.01-0.43-2.19-0.01-2.95,0.73c-0.63,0.61-0.82,1.53-1.76,1.63c-2.64,0.29-5.35,0.25-8,0.37
			c-1.62,0.08-2.12,2.55-0.4,2.95c1.82,0.42,3.73,0.37,5.49-0.28c0.86-0.32,1.57-0.89,2.4-1.25c0.83-0.36,1.85,0.22,2.68,0.45
			c0.98,0.27,1.97,0.48,2.97,0.63c0.85,0.13,1.81,0.37,2.58-0.15c1.24-0.82,1.33-3,0.92-4.29c-0.56-1.76-2.25-2.29-3.92-1.84
			c-1.98,0.53-3.91,1.21-5.92,1.67c-4.05,0.92-8.17,1.36-12.32,1.39C112.86,98.61,112.86,101.61,114.79,101.6L114.79,101.6z"/>
	</g>
</g>
<g>
	<g>
		<path class="st4" d="M143.13,95c-1.86,0.56-3.01,2.1-3.25,3.99c-0.09,0.76,0.76,1.56,1.5,1.5c3.44-0.27,6.92,0.88,10.33,0.02
			c1.67-0.42,4.05-1.56,3.94-3.59c-0.11-1.9-2.24-2.64-3.85-2.66c-2.46-0.03-4.92,0.06-7.37,0.08c-0.81,0.01-1.5,0.68-1.5,1.5
			c0,0.86,0.69,1.44,1.5,1.5c1.82,0.13,3.53,0.92,4.85,2.17c0.61-0.79,1.21-1.57,1.82-2.36c-1.1-0.77-2.21-1.53-3.31-2.3
			c-0.67-0.46-1.67-0.12-2.05,0.54c-0.44,0.75-0.13,1.59,0.54,2.05c1.1,0.77,2.21,1.53,3.31,2.3c1.41,0.98,3.04-1.19,1.82-2.36
			c-1.91-1.82-4.34-2.86-6.97-3.05c0,1,0,2,0,3c2.29-0.03,4.58-0.05,6.87-0.08c0.22,0,0.44-0.01,0.66,0c0.01,0,0.45,0.06,0.24,0.02
			c0.09,0.02,0.47,0.12,0.44,0.11c-0.08-0.04-0.04-0.02,0.1,0.05c0.15,0.1,0.17,0.1,0.05,0.01c0.03,0.03,0.06,0.06,0.09,0.09
			c-0.14-0.14-0.21-0.31-0.21-0.49c0-0.08,0.04-0.29,0.07-0.27c-0.03-0.02-0.89,0.53-1,0.58c-1.5,0.63-3.21,0.51-4.83,0.38
			c-1.84-0.15-3.67-0.4-5.52-0.25c0.5,0.5,1,1,1.5,1.5c0.05-0.42,0.55-0.95,1.04-1.1C145.77,97.34,144.98,94.45,143.13,95L143.13,95
			z"/>
	</g>
</g>
<g>
	<g>
		<path class="st4" d="M155.62,98.74c1.93,0,1.93-3,0-3C153.69,95.74,153.69,98.74,155.62,98.74L155.62,98.74z"/>
	</g>
</g>
<g>
	<g>
		<path d="M185.14,90.08c5.28,5.49,8.04,13.01,7.66,20.61c-0.1,1.93,2.9,1.92,3,0c0.43-8.37-2.73-16.7-8.53-22.73
			C185.92,86.56,183.8,88.69,185.14,90.08L185.14,90.08z"/>
	</g>
</g>
<g>
	<g>
		<path class="st5" d="M184.76,91.67c2.55,0.27,4.99,1.37,6.83,3.17c1.95,1.9,3.06,4.5,4.22,6.91c1.17,2.44,2.26,4.96,2.75,7.64
			c0.51,2.79,0,5.62,0.4,8.41c0.14,0.95,1.58,0.55,1.45-0.4c-0.44-3.1,0.14-6.19-0.58-9.29c-0.68-2.92-1.99-5.66-3.31-8.34
			c-1.24-2.52-2.52-4.99-4.74-6.78c-2.02-1.63-4.43-2.56-7-2.83C183.8,90.07,183.8,91.57,184.76,91.67L184.76,91.67z"/>
	</g>
</g>
<g>
	<g>
		<path class="st5" d="M197.51,90.32c0.82,1.96,1.64,3.95,2.86,5.7c1.2,1.73,2.83,3.13,3.9,4.96c2.22,3.8,0.86,8.61,1.92,12.73
			c0.24,0.93,1.69,0.54,1.45-0.4c-1.05-4.08,0.13-8.51-1.71-12.42c-0.85-1.8-2.31-3.18-3.55-4.7c-1.52-1.87-2.49-4.07-3.42-6.28
			C198.59,89.04,197.14,89.43,197.51,90.32L197.51,90.32z"/>
	</g>
</g>
<g>
	<g>
		<path class="st5" d="M173.6,38.53c-0.4,8.03-0.8,16.06-1.19,24.09c-0.05,0.96,1.45,0.96,1.5,0c0.4-8.03,0.8-16.06,1.19-24.09
			C175.15,37.57,173.65,37.57,173.6,38.53L173.6,38.53z"/>
	</g>
</g>
<g>
	<g>
		<path class="st5" d="M116.88,34.86c3.56,9.64,4.5,20.1,2.63,30.21c-0.17,0.94,1.27,1.35,1.45,0.4
			c1.92-10.37,1.03-21.11-2.63-31.01C118,33.56,116.55,33.95,116.88,34.86L116.88,34.86z"/>
	</g>
</g>
</svg>
