<?xml version="1.0" encoding="iso-8859-1"?>
<!-- Generator: Adobe Illustrator 19.0.0, SVG Export Plug-In . SVG Version: 6.00 Build 0)  -->
<svg version="1.1" id="Capa_1" xmlns="http://www.w3.org/2000/svg" xmlns:xlink="http://www.w3.org/1999/xlink" x="0px" y="0px"
	 viewBox="0 0 511.999 511.999" style="enable-background:new 0 0 511.999 511.999;" xml:space="preserve">
<path style="fill:#FE8F8D;" d="M179.215,332.761c-8.234,8.234-8.995,20.825-1.699,28.122l38.773,38.773l0.904,0.904
	c4.903,4.903,2.061,14.027-5.18,16.38c-6.549,2.127-12.845,5.892-18.209,11.258l-1.23,1.23
	c-16.354,16.354-17.865,41.361-3.373,55.852l0,0c14.491,14.491,39.497,12.982,55.852-3.373l1.23-1.23
	c5.364-5.364,9.13-11.66,11.258-18.209c2.352-7.241,11.477-10.084,16.38-5.18l0.904,0.904l38.773,38.773
	c7.296,7.296,19.887,6.536,28.122-1.699l27.529-27.529l16.206-16.206c5.345-5.345,13.885-3.927,15.733,2.7
	c1.537,5.508,4.395,10.601,8.6,14.806l1.09,1.09c14.491,14.491,39.497,12.982,55.852-3.373l0,0
	c16.354-16.354,17.864-41.36,3.373-55.852l-1.09-1.09c-4.207-4.207-9.298-7.063-14.806-8.6c-6.626-1.849-8.045-10.388-2.7-15.733
	l16.147-16.147l27.638-27.638c8.234-8.234,8.995-20.825,1.699-28.122l-39.677-39.677c-4.903-4.903-2.061-14.027,5.18-16.38
	c6.549-2.127,12.845-5.892,18.209-11.258l1.23-1.23c16.354-16.354,17.865-41.361,3.373-55.852l0,0
	c-14.491-14.491-39.497-12.982-55.852,3.373l-1.23,1.23c-5.364,5.364-9.13,11.66-11.258,18.209
	c-2.352,7.241-11.477,10.084-16.38,5.18l-39.677-39.677c-7.296-7.296-19.887-6.536-28.122,1.699L179.215,332.761z"/>
<path style="fill:#C3F1EE;" d="M53.766,237.184c4.736,4.736,2.273,13.511-4.627,16.176c-5.735,2.216-11.211,5.711-15.957,10.458
	l-1.23,1.23c-16.354,16.354-17.865,41.361-3.373,55.852l0,0c14.491,14.491,39.497,12.982,55.852-3.373l1.23-1.23
	c4.746-4.746,8.242-10.222,10.458-15.957c2.666-6.899,11.439-9.364,16.176-4.626l38.798,38.798
	c7.296,7.296,19.887,6.536,28.122-1.698l44.777-44.777c5.533-5.533,14.38-3.777,15.872,3.233c1.349,6.339,4.379,12.224,9.132,16.977
	l1.09,1.09c14.491,14.491,39.497,12.982,55.852-3.373l0,0c16.354-16.354,17.864-41.36,3.373-55.852l-1.09-1.09
	c-4.753-4.753-10.638-7.784-16.977-9.132c-7.009-1.491-8.766-10.338-3.233-15.872l44.777-44.777
	c8.234-8.234,8.995-20.825,1.698-28.122l-38.798-38.798c-4.736-4.736-13.511-2.273-16.176,4.627
	c-2.216,5.735-5.711,11.211-10.458,15.957l-1.23,1.23c-16.354,16.354-41.36,17.864-55.852,3.373l0,0
	c-14.491-14.491-12.982-39.498,3.373-55.852l1.23-1.23c4.746-4.746,10.222-8.242,15.957-10.458
	c6.899-2.666,9.364-11.439,4.627-16.176l-38.755-38.753c-7.296-7.296-19.887-6.536-28.122,1.699l-43.757,43.756l-1.02,1.02
	c-5.533,5.533-14.38,3.777-15.872-3.233c-1.349-6.339-4.379-12.224-9.132-16.977l-1.09-1.09
	c-14.49-14.491-39.497-12.982-55.851,3.373l0,0c-16.354,16.354-17.864,41.36-3.373,55.852l1.09,1.09
	c4.753,4.753,10.638,7.784,16.977,9.132c7.009,1.491,8.766,10.338,3.233,15.872l-1.02,1.02L16.71,170.309
	c-8.234,8.234-8.995,20.825-1.699,28.122L53.766,237.184z"/>
<path d="M91.697,205.486c-2.63,0-5.209,1.06-7.069,2.93c-1.859,1.86-2.92,4.43-2.92,7.069c0,2.63,1.061,5.209,2.92,7.069
	c1.86,1.86,4.44,2.93,7.069,2.93c2.64,0,5.209-1.07,7.079-2.93c1.86-1.87,2.93-4.44,2.93-7.069c0-2.63-1.069-5.209-2.93-7.069
	C96.907,206.546,94.337,205.486,91.697,205.486z"/>
<path d="M504.059,306.5l-39.035-39.035c0.114-0.174,0.295-0.356,0.558-0.441c8.228-2.672,15.9-7.408,22.192-13.699l1.229-1.229
	c20.227-20.227,21.739-51.624,3.373-69.992c-18.366-18.368-49.766-16.853-69.993,3.374l-1.229,1.229
	c-6.288,6.289-11.025,13.963-13.697,22.19c-0.086,0.263-0.268,0.444-0.442,0.558l-39.034-39.036
	c-5.036-5.035-11.65-7.641-18.505-7.886c-0.248-7.087-3.003-13.569-7.92-18.486l-38.798-38.798
	c-4.443-4.442-10.909-6.286-17.297-4.937c-6.983,1.477-12.694,6.348-15.276,13.032c-1.792,4.637-4.551,8.84-8.202,12.492
	l-1.229,1.229c-12.431,12.431-31.142,13.942-41.711,3.373c-4.957-4.957-7.433-11.902-6.971-19.554
	c0.489-8.107,4.163-15.976,10.345-22.158l1.229-1.229c3.649-3.65,7.852-6.409,12.49-8.201c6.684-2.583,11.556-8.293,13.032-15.276
	c1.351-6.388-0.495-12.854-4.937-17.296L205.475,7.968c-11.184-11.184-30.143-10.422-42.262,1.698l-44.325,44.326
	c-2-7.534-5.884-14.328-11.312-19.756l-1.092-1.093C88.118,14.776,56.718,16.29,36.49,36.517
	c-20.227,20.227-21.739,51.625-3.371,69.993l1.088,1.087c5.431,5.432,12.226,9.315,19.76,11.315L9.64,163.238
	c-5.711,5.712-9.115,13.128-9.584,20.881c-0.495,8.208,2.306,15.802,7.886,21.382l38.113,38.114
	c-0.104,0.156-0.269,0.322-0.521,0.419c-7.256,2.804-13.792,7.082-19.424,12.715l-1.229,1.229
	c-9.639,9.64-15.379,22.102-16.164,35.092c-0.812,13.446,3.731,25.84,12.792,34.9c9.061,9.061,21.446,13.604,34.9,12.792
	c12.99-0.785,25.452-6.525,35.092-16.165l1.229-1.229c5.635-5.635,9.912-12.171,12.715-19.424c0.097-0.251,0.263-0.416,0.419-0.52
	l38.157,38.158c5.036,5.036,11.65,7.644,18.505,7.889c0.248,7.085,3.004,13.566,7.92,18.482l38.772,38.773l0.263,0.262
	c-0.114,0.174-0.295,0.356-0.558,0.441c-8.228,2.672-15.9,7.408-22.191,13.697l-1.229,1.23
	c-20.227,20.227-21.739,51.625-3.373,69.992c9.061,9.06,21.447,13.601,34.9,12.791c12.99-0.785,25.452-6.525,35.092-16.164
	l1.229-1.229c6.288-6.289,11.025-13.962,13.697-22.191c0.086-0.263,0.268-0.444,0.442-0.558l39.034,39.036
	c5.297,5.296,12.339,7.914,19.571,7.914c8.037,0,16.312-3.233,22.692-9.612l43.387-43.387c2.149,6.485,5.766,12.383,10.543,17.16
	l1.088,1.088c18.366,18.367,49.765,16.852,69.992-3.373c20.227-20.227,21.74-51.625,3.372-69.995l-1.088-1.088
	c-4.775-4.775-10.673-8.393-17.158-10.541l43.436-43.436c5.711-5.712,9.115-13.128,9.584-20.881
	C512.44,319.673,509.639,312.079,504.059,306.5z M119.364,288.643c-3.484-3.485-8.214-5.372-13.175-5.372
	c-1.364,0-2.745,0.143-4.123,0.434c-6.983,1.476-12.694,6.347-15.276,13.032c-1.792,4.638-4.551,8.84-8.201,12.491l-1.229,1.229
	c-6.18,6.18-14.049,9.854-22.157,10.344c-7.656,0.464-14.598-2.014-19.554-6.97c-4.957-4.957-7.433-11.902-6.971-19.554
	c0.49-8.108,4.163-15.977,10.344-22.157l1.229-1.23c3.649-3.65,7.852-6.409,12.49-8.201c6.684-2.583,11.556-8.293,13.032-15.276
	c1.351-6.388-0.495-12.854-4.937-17.296l-38.754-38.754c-1.994-1.993-2.149-4.637-2.065-6.036c0.174-2.871,1.51-5.691,3.764-7.945
	l7.839-7.839l29.933,29.934c1.953,1.953,4.512,2.929,7.07,2.929s5.117-0.977,7.07-2.929c3.905-3.905,3.905-10.236,0-14.14
	L45.759,155.4l22.797-22.797c5.412-5.413,7.487-13.128,5.412-20.133c-1.917-6.474-7.014-11.181-13.636-12.59
	c-4.689-0.998-8.724-3.159-11.989-6.424l-1.088-1.088c-10.57-10.569-9.057-29.281,3.373-41.711
	c12.429-12.43,31.141-13.944,41.709-3.377l1.093,1.094c3.264,3.263,5.424,7.296,6.422,11.987c1.408,6.621,6.114,11.719,12.59,13.636
	c7.003,2.075,14.719,0,20.135-5.414l44.775-44.775c4.25-4.25,10.653-5.026,13.98-1.698l38.113,38.113
	c-0.104,0.156-0.269,0.322-0.521,0.419c-7.256,2.804-13.792,7.082-19.425,12.716l-1.229,1.229
	c-9.639,9.639-15.379,22.102-16.164,35.092c-0.812,13.446,3.731,25.84,12.792,34.9c18.366,18.366,49.766,16.853,69.993-3.375
	l1.229-1.229c5.635-5.635,9.912-12.171,12.715-19.424c0.097-0.251,0.263-0.416,0.419-0.52l38.157,38.158
	c1.994,1.993,2.149,4.637,2.065,6.035c-0.164,2.7-1.366,5.35-3.383,7.531c-0.126,0.122-0.255,0.238-0.38,0.363
	c-0.168,0.168-0.319,0.346-0.473,0.523l-44.305,44.305c-5.412,5.413-7.487,13.128-5.412,20.133
	c1.917,6.474,7.014,11.181,13.635,12.59c4.691,0.998,8.725,3.159,11.988,6.422l1.09,1.09c10.57,10.57,9.057,29.281-3.373,41.711
	c-12.43,12.429-31.141,13.943-41.711,3.375l-1.091-1.091c-3.264-3.264-5.424-7.297-6.422-11.988
	c-1.408-6.621-6.114-11.719-12.59-13.636c-7.003-2.074-14.72-0.001-20.134,5.412l-44.258,44.259
	c-0.175,0.152-0.351,0.301-0.517,0.467c-0.138,0.138-0.268,0.281-0.403,0.421c-4.243,3.914-10.352,4.556-13.58,1.329
	L119.364,288.643z M491.982,326.676c-0.174,2.871-1.51,5.691-3.764,7.945l-43.785,43.785c-5.231,5.231-7.366,12.73-5.571,19.568
	c1.655,6.307,6.386,11.118,12.655,12.867c4.035,1.125,7.542,3.158,10.426,6.041l1.088,1.088c10.57,10.57,9.057,29.281-3.374,41.711
	c-12.429,12.429-31.141,13.943-41.713,3.372l-1.088-1.087c-2.882-2.882-4.913-6.389-6.039-10.424c-1.75-6.269-6.56-11-12.867-12.655
	c-6.836-1.796-14.335,0.34-19.568,5.572l-43.735,43.736c-4.25,4.25-10.652,5.025-13.98,1.698l-13.295-13.295l38.244-38.244
	c3.905-3.905,3.905-10.236,0-14.142c-3.906-3.905-10.235-3.905-14.142,0l-38.244,38.244l-12.241-12.241
	c-4.595-4.594-11.263-6.394-17.836-4.814c-7.081,1.7-12.877,7.055-15.124,13.978c-1.702,5.24-4.751,10.16-8.818,14.227l-1.229,1.229
	c-6.18,6.18-14.049,9.854-22.157,10.344c-7.645,0.463-14.597-2.013-19.554-6.97c-10.57-10.569-9.057-29.281,3.373-41.712
	l1.229-1.229c4.068-4.068,8.988-7.116,14.227-8.818c6.921-2.248,12.276-8.042,13.978-15.123c1.579-6.575-0.221-13.244-4.813-17.837
	l-39.677-39.677c-1.994-1.993-2.149-4.637-2.065-6.035c0.164-2.706,1.371-5.361,3.396-7.545c0.122-0.118,0.247-0.229,0.367-0.35
	l44.325-44.326c2,7.534,5.883,14.328,11.314,19.758l1.09,1.091c18.368,18.366,49.766,16.854,69.993-3.374
	c20.227-20.227,21.739-51.624,3.373-69.992l-1.09-1.089c-5.431-5.431-12.226-9.315-19.759-11.315l44.325-44.326
	c0.137-0.138,0.267-0.281,0.402-0.42c4.243-3.914,10.353-4.557,13.58-1.33l39.677,39.677c4.594,4.592,11.261,6.393,17.836,4.814
	c7.081-1.7,12.877-7.055,15.124-13.978c1.702-5.24,4.751-10.16,8.819-14.227l1.229-1.229c12.43-12.43,31.141-13.943,41.711-3.373
	c10.57,10.57,9.057,29.281-3.374,41.712l-1.228,1.228c-4.068,4.068-8.988,7.116-14.228,8.818
	c-6.92,2.248-12.275,8.043-13.977,15.123c-1.579,6.575,0.221,13.243,4.813,17.837l39.677,39.677
	C491.911,322.633,492.066,325.278,491.982,326.676z"/>
<path d="M367.847,391.976c-2.63,0-5.209,1.07-7.068,2.93c-1.86,1.86-2.931,4.44-2.931,7.069c0,2.63,1.07,5.209,2.931,7.069
	c1.859,1.86,4.439,2.93,7.068,2.93c2.641,0,5.209-1.07,7.079-2.93c1.86-1.86,2.931-4.44,2.931-7.069c0-2.63-1.07-5.209-2.931-7.069
	C373.057,393.046,370.488,391.976,367.847,391.976z"/>
<g>
</g>
<g>
</g>
<g>
</g>
<g>
</g>
<g>
</g>
<g>
</g>
<g>
</g>
<g>
</g>
<g>
</g>
<g>
</g>
<g>
</g>
<g>
</g>
<g>
</g>
<g>
</g>
<g>
</g>
</svg>
