<svg height="512pt" viewBox="-5 0 512 512" width="512pt" xmlns="http://www.w3.org/2000/svg"><path d="m444.113281 0h-201.949219l-33.496093 231.125 33.496093 258.40625 100.167969 22.46875s12.566407-.074219 12.777344-.214844c24.335937 0 44.367187-21.222656 44.367187-44.292968l-.015624-397.167969zm0 0" fill="#ffc157"/><path d="m143.6875 0c-31.679688 0-57.457031 25.773438-57.457031 57.453125l-.027344 397.09375 155.960937 34.984375v-489.53125zm0 0" fill="#ffd27b"/><path d="m166 324.332031h30v30h-30zm0 0" fill="#eb8d00"/><path d="m443.96875 0c-24.542969 0-44.507812 19.964844-44.507812 44.507812v25.8125h89.015624v-25.8125c0-24.542968-19.964843-44.507812-44.507812-44.507812zm0 0" fill="#eb9d2d"/><path d="m336.664062 130.332031v-30h-94.332031l-12.332031 17 12.332031 13zm0 0" fill="#bd6800"/><path d="m262 205v-30h-19.667969l-12.332031 17 12.332031 13zm0 0" fill="#bd6800"/><path d="m336.664062 279.664062v-30h-94.332031l-12.332031 16.667969 12.332031 13.332031zm0 0" fill="#bd6800"/><g fill="#eb8d00"><path d="m166 100.332031h76.332031v30h-76.332031zm0 0"/><path d="m166 175h76.332031v30h-76.332031zm0 0"/><path d="m166 249.664062h76.332031v30h-76.332031zm0 0"/></g><path d="m354.78125 512v-.003906c-24.457031-.105469-44.320312-20.027344-44.320312-44.503906v-25.824219h-67.792969l-12.667969 31.667969 12.664062 38.664062zm0 0" fill="#ffdc82"/><path d="m0 467.234375c0 24.722656 20.042969 44.765625 44.765625 44.765625h197.898437v-70.332031h-242.664062zm0 0" fill="#ffe899"/><path d="m501.617188 188.851562-1.4375-28.265624-120.847657 106.082031-93.949219 108.714843h84.117188l56.523438-56.523437 6.640624-20.191406 14.570313-1.019531 20.351563-20.351563c23.300781-23.300781 35.703124-55.535156 34.03125-88.445313zm0 0" fill="#189edb"/><path d="m471.914062 159.148438 28.265626 1.4375-214.796876 214.796874v-84.113281l56.523438-56.523437 26.757812-.078125-5.546874-21.136719 20.351562-20.351562c23.300781-23.300782 55.539062-35.703126 88.445312-34.03125zm0 0" fill="#4bbaed"/><path d="m363.109375 213.527344 19.65625 19.65625-21.214844 21.210937-19.652343-19.652343zm0 0" fill="#87d0ed"/><path d="m426.015625 318.867188-19.652344-19.65625 21.210938-21.214844 19.65625 19.65625zm0 0" fill="#4bbaed"/><path d="m331.066406 308.480469 21.214844 21.214843-88.832031 88.832032-21.214844-21.214844zm0 0" fill="#cce4ed"/></svg>