<?xml version="1.0" encoding="iso-8859-1"?>
<!-- Generator: Adobe Illustrator 21.0.0, SVG Export Plug-In . SVG Version: 6.00 Build 0)  -->
<svg version="1.1" id="Capa_1" xmlns="http://www.w3.org/2000/svg" xmlns:xlink="http://www.w3.org/1999/xlink" x="0px" y="0px"
	 viewBox="0 0 512.001 512.001" style="enable-background:new 0 0 512.001 512.001;" xml:space="preserve">
<path style="fill:#FF8C4F;" d="M466.168,466.167L466.168,466.167c-43.907,43.907-115.093,43.907-158.999,0L45.834,204.833
	c-43.906-43.906-43.906-115.093,0-158.999l0,0c43.906-43.906,115.093-43.906,158.999,0l261.334,261.334
	C510.074,351.074,510.074,422.26,466.168,466.167z"/>
<path style="fill:#EE6B28;" d="M332.541,440.794L71.207,179.46C31.619,139.872,27.732,78.11,59.532,34.159
	c-4.794,3.469-9.38,7.356-13.698,11.674l0,0c-43.906,43.906-43.906,115.093,0,158.999l261.334,261.334
	c43.906,43.906,115.093,43.906,158.999,0l0,0c4.318-4.318,8.205-8.904,11.674-13.698
	C433.891,484.269,372.129,480.383,332.541,440.794z"/>
<path style="fill:#3A484A;" d="M149.341,149.34L149.341,149.34c-11.054,11.054-28.977,11.054-40.032,0l-10.788-10.788
	c-11.054-11.054-11.054-28.977,0-40.032l0,0c11.054-11.054,28.977-11.054,40.032,0l10.788,10.788
	C160.396,120.363,160.396,138.286,149.341,149.34z"/>
<rect x="38.768" y="118.075" transform="matrix(0.7071 -0.7071 0.7071 0.7071 -57.1743 138.0404)" style="fill:#EFEDEE;" width="198.548" height="39.922"/>
<rect x="59.093" y="167.134" transform="matrix(0.7071 -0.7071 0.7071 0.7071 -106.2303 117.7275)" style="fill:#D4D2D3;" width="59.802" height="39.922"/>
<path style="fill:#DC5A64;" d="M106.119,228.932l-36.185,36.185c-4.308,4.308-11.294,4.308-15.602,0l-43.6-43.6
	c-4.308-4.308-4.308-11.294,0-15.602l36.185-36.185c4.308-4.308,11.294-4.308,15.602,0l43.6,43.6
	C110.427,217.639,110.427,224.624,106.119,228.932z"/>
<path style="fill:#BF4E57;" d="M71.247,248.202l-43.6-43.6c-4.308-4.308-4.308-11.294,0-15.602l-16.915,16.915
	c-4.308,4.308-4.308,11.294,0,15.602l43.6,43.6c4.308,4.308,11.294,4.308,15.602,0l16.915-16.915
	C82.541,252.511,75.555,252.511,71.247,248.202z"/>
<path style="fill:#DC5A64;" d="M265.118,69.933l-36.185,36.185c-4.308,4.308-11.294,4.308-15.602,0l-43.6-43.6
	c-4.308-4.308-4.308-11.294,0-15.602l36.185-36.185c4.308-4.308,11.294-4.308,15.602,0l43.6,43.6
	C269.427,58.64,269.427,65.625,265.118,69.933z"/>
<path style="fill:#BF4E57;" d="M230.246,89.203l-43.6-43.6c-4.308-4.308-4.308-11.294,0-15.602l-16.915,16.915
	c-4.308,4.308-4.308,11.294,0,15.602l43.6,43.6c4.308,4.308,11.294,4.308,15.602,0l16.915-16.915
	C241.54,93.512,234.555,93.512,230.246,89.203z"/>
<path style="fill:#3A484A;" d="M362.661,362.66L362.661,362.66c-11.054,11.054-11.054,28.977,0,40.032l10.788,10.788
	c11.054,11.054,28.977,11.054,40.032,0l0,0c11.054-11.054,11.054-28.977,0-40.032l-10.788-10.788
	C391.638,351.605,373.715,351.605,362.661,362.66z"/>
<rect x="274.671" y="353.996" transform="matrix(0.7071 -0.7071 0.7071 0.7071 -154.9017 373.9485)" style="fill:#EFEDEE;" width="198.548" height="39.922"/>
<rect x="294.995" y="403.048" transform="matrix(0.7071 -0.7071 0.7071 0.7071 -203.9525 353.6331)" style="fill:#D4D2D3;" width="59.802" height="39.922"/>
<path style="fill:#DC5A64;" d="M283.069,405.882l-36.185,36.185c-4.308,4.308-4.308,11.294,0,15.602l43.6,43.6
	c4.308,4.308,11.294,4.308,15.602,0l36.185-36.185c4.308-4.308,4.308-11.294,0-15.602l-43.6-43.6
	C294.362,401.574,287.377,401.574,283.069,405.882z"/>
<path style="fill:#BF4E57;" d="M263.799,440.754l43.6,43.6c4.308,4.308,11.294,4.308,15.602,0l-16.915,16.915
	c-4.308,4.308-11.294,4.308-15.602,0l-43.6-43.6c-4.308-4.308-4.308-11.294,0-15.602l16.915-16.915
	C259.49,429.46,259.49,436.446,263.799,440.754z"/>
<path style="fill:#DC5A64;" d="M442.068,246.883l-36.185,36.185c-4.308,4.308-4.308,11.294,0,15.602l43.6,43.6
	c4.308,4.308,11.294,4.308,15.602,0l36.185-36.185c4.308-4.308,4.308-11.294,0-15.602l-43.6-43.6
	C453.361,242.574,446.376,242.574,442.068,246.883z"/>
<path style="fill:#BF4E57;" d="M422.798,281.755l43.6,43.6c4.308,4.308,11.294,4.308,15.602,0l-16.915,16.915
	c-4.308,4.308-11.294,4.308-15.602,0l-43.6-43.6c-4.308-4.308-4.308-11.294,0-15.602l16.915-16.915
	C418.489,270.461,418.489,277.446,422.798,281.755z"/>
<g>
	<path style="fill:#EFEDEE;" d="M295.454,322.146c-1.919,0-3.839-0.732-5.304-2.196l-8.029-8.029c-2.929-2.93-2.929-7.678,0-10.607
		c2.93-2.928,7.678-2.928,10.607,0l8.029,8.029c2.929,2.93,2.929,7.678,0,10.607C299.293,321.414,297.373,322.146,295.454,322.146z"
		/>
	<path style="fill:#EFEDEE;" d="M205.384,232.076c-1.919,0-3.839-0.732-5.304-2.196l-8.029-8.029c-2.929-2.93-2.929-7.678,0-10.607
		c2.93-2.928,7.678-2.928,10.607,0l8.029,8.029c2.929,2.93,2.929,7.678,0,10.607C209.223,231.344,207.303,232.076,205.384,232.076z"
		/>
</g>
<path d="M254.578,284.273c2.326,0,4.67-0.303,6.969-0.923c3.999-1.08,6.365-5.197,5.286-9.196c-1.081-4.001-5.204-6.36-9.196-5.286
	c-4.076,1.104-8.468-0.066-11.453-3.052c-2.983-2.982-4.152-7.371-3.051-11.453c1.079-3.999-1.288-8.116-5.287-9.195
	c-3.995-1.08-8.116,1.287-9.195,5.287c-2.496,9.251,0.159,19.201,6.927,25.968C240.663,281.511,247.546,284.273,254.578,284.273z"/>
<path d="M311.922,300.757l8.029-8.029c2.929-2.93,2.929-7.678,0-10.607c-2.93-2.928-7.678-2.928-10.607,0l-8.029,8.029
	c-2.929,2.93-2.929,7.678,0,10.607c1.465,1.464,3.385,2.196,5.304,2.196S310.457,302.221,311.922,300.757z"/>
<path d="M229.881,192.05c-2.93-2.928-7.678-2.928-10.607,0l-8.029,8.029c-2.929,2.93-2.929,7.678,0,10.607
	c1.465,1.464,3.385,2.196,5.304,2.196s3.839-0.732,5.304-2.196l8.029-8.029C232.81,199.728,232.81,194.979,229.881,192.05z"/>
<path d="M506.573,285.179l-43.6-43.6c-3.501-3.5-8.154-5.428-13.104-5.428c-4.951,0-9.604,1.928-13.105,5.428l-12.789,12.789
	L307.607,138c-2.93-2.928-7.678-2.928-10.607,0c-2.929,2.93-2.929,7.678,0,10.607l116.368,116.368l-12.789,12.789
	c-7.226,7.227-7.226,18.983,0,26.21l2.261,2.261l-96.604,96.604l-2.261-2.261c-3.501-3.5-8.154-5.428-13.104-5.428
	c-4.951,0-9.604,1.928-13.105,5.428l-12.789,12.789L98.634,247.025l12.789-12.789c7.226-7.227,7.226-18.983,0-26.21l-2.261-2.261
	l96.604-96.604l2.261,2.261c3.501,3.5,8.154,5.428,13.105,5.428c4.95,0,9.604-1.928,13.104-5.428l12.789-12.789l30.173,30.173
	c1.465,1.464,3.385,2.196,5.304,2.196s3.839-0.732,5.304-2.196c2.929-2.93,2.929-7.678,0-10.607l-30.173-30.173l12.789-12.789
	c7.226-7.227,7.226-18.983,0-26.21l-43.6-43.6C223.321,1.928,218.668,0,213.718,0c-4.951,0-9.604,1.928-13.105,5.428l-15.772,15.771
	C163.264,8.874,138.037,3.488,113.134,6.022C85.787,8.804,60.003,21.059,40.53,40.53C21.226,59.835,8.995,85.389,6.091,112.482
	c-2.69,25.098,2.664,50.606,15.099,72.368L5.429,200.611c-7.226,7.227-7.226,18.983,0,26.21l43.6,43.6
	c3.501,3.5,8.154,5.428,13.105,5.428c4.95,0,9.604-1.928,13.104-5.428l12.789-12.789l166.342,166.342l-12.789,12.789
	c-7.226,7.227-7.226,18.983,0,26.21l43.6,43.6c3.501,3.5,8.154,5.428,13.105,5.428c4.95,0,9.604-1.928,13.104-5.428l15.772-15.772
	c18.083,10.33,38.724,15.791,59.603,15.791c4.039,0,8.089-0.204,12.128-0.615c27.337-2.786,53.113-15.041,72.579-34.506
	c19.307-19.308,31.538-44.863,34.44-71.96c2.687-25.095-2.666-50.6-15.1-72.36l15.761-15.761
	C513.799,304.162,513.799,292.405,506.573,285.179z M98.554,195.158l-17.622-17.622l96.605-96.604l17.621,17.621L98.554,195.158z
	 M103.824,133.248c-3.93-3.93-6.094-9.154-6.094-14.712s2.164-10.782,6.095-14.712c3.93-3.931,9.154-6.095,14.712-6.095
	s10.782,2.164,14.713,6.095l0.09,0.09l-29.425,29.425L103.824,133.248z M211.22,16.035c0.9-0.9,1.951-1.035,2.498-1.035
	c0.546,0,1.597,0.135,2.497,1.035l43.6,43.6c1.378,1.377,1.378,3.618,0,4.995l-18.083,18.083c-0.003,0.003-0.007,0.006-0.01,0.009
	s-0.006,0.007-0.009,0.01l-18.083,18.083c-0.9,0.9-1.951,1.035-2.497,1.035c-0.547,0-1.598-0.135-2.498-1.035l-7.555-7.555
	c-0.003-0.003-0.006-0.007-0.009-0.01s-0.007-0.006-0.01-0.009l-36.025-36.025c-1.378-1.377-1.378-3.618,0-4.995l15.744-15.744
	c0.38-0.311,0.733-0.662,1.053-1.053L211.22,16.035z M51.139,51.137c32.404-32.406,82.62-39.708,122.658-18.893l-9.369,9.369
	c-7.226,7.227-7.226,18.983,0,26.21l2.502,2.502l-22.984,22.983l-0.09-0.09c-6.763-6.764-15.755-10.488-25.319-10.488
	c-9.563,0-18.556,3.725-25.319,10.487c-6.763,6.764-10.487,15.756-10.487,25.319c0,9.564,3.725,18.557,10.487,25.318l0.091,0.091
	l-22.984,22.983l-2.502-2.502c-3.501-3.5-8.154-5.428-13.104-5.428c-4.951,0-9.604,1.928-13.105,5.428l-9.373,9.373
	C11.044,133.35,18.301,83.974,51.139,51.137z M64.631,259.813c-0.9,0.9-1.951,1.035-2.497,1.035c-0.547,0-1.598-0.135-2.498-1.035
	l-43.6-43.6c-1.378-1.377-1.378-3.618,0-4.995l36.185-36.185c0.9-0.9,1.951-1.035,2.498-1.035c0.546,0,1.597,0.135,2.497,1.035
	l43.6,43.6c1.378,1.377,1.378,3.618,0,4.995L64.631,259.813z M413.448,316.842l17.622,17.622l-96.604,96.604l-17.622-17.622
	L413.448,316.842z M408.178,378.752c3.93,3.93,6.094,9.154,6.094,14.712s-2.164,10.782-6.095,14.712
	c-3.93,3.931-9.154,6.095-14.712,6.095s-10.782-2.164-14.712-6.095l-0.09-0.09l29.424-29.424L408.178,378.752z M300.782,495.965
	c-0.9,0.9-1.951,1.035-2.497,1.035c-0.547,0-1.598-0.135-2.498-1.035l-43.6-43.6c-1.378-1.377-1.378-3.618,0-4.995l36.185-36.185
	c0.9-0.9,1.951-1.035,2.498-1.035c0.546,0,1.597,0.135,2.497,1.035l7.555,7.555c0.003,0.003,0.006,0.007,0.009,0.01
	s0.007,0.006,0.01,0.009l36.025,36.025c1.378,1.377,1.378,3.618,0,4.995L300.782,495.965z M460.863,460.863
	c-32.4,32.401-82.622,39.707-122.658,18.893l9.369-9.369c7.226-7.227,7.226-18.983,0-26.21l-2.502-2.502l22.983-22.983l0.09,0.09
	c6.763,6.764,15.755,10.488,25.319,10.488c9.563,0,18.556-3.725,25.319-10.487c6.763-6.764,10.487-15.756,10.487-25.319
	c0-9.564-3.725-18.557-10.487-25.318l-0.091-0.091l22.983-22.983l2.502,2.502c3.501,3.5,8.154,5.428,13.105,5.428
	c4.95,0,9.604-1.928,13.104-5.428l9.374-9.374C500.959,378.65,493.702,428.025,460.863,460.863z M495.966,300.781l-36.185,36.185
	c-0.9,0.9-1.951,1.035-2.497,1.035c-0.547,0-1.598-0.135-2.498-1.035l-43.6-43.6c-1.378-1.377-1.378-3.618,0-4.995l36.185-36.185
	c0.9-0.9,1.951-1.035,2.498-1.035c0.546,0,1.597,0.135,2.497,1.035l43.6,43.6C497.344,297.163,497.344,299.404,495.966,300.781z"/>
<g>
</g>
<g>
</g>
<g>
</g>
<g>
</g>
<g>
</g>
<g>
</g>
<g>
</g>
<g>
</g>
<g>
</g>
<g>
</g>
<g>
</g>
<g>
</g>
<g>
</g>
<g>
</g>
<g>
</g>
</svg>
