<svg id="Ebene_1" data-name="Ebene 1" xmlns="http://www.w3.org/2000/svg" viewBox="0 0 39.01 38.91"><defs><style>.cls-1{fill:#ff1050;}.cls-2{fill:#4f031f;}</style></defs><title>Star</title><path class="cls-1" d="M8.47,38.75a1.06,1.06,0,0,1-.79-.37,1,1,0,0,1-.22-.82L9.32,26.11a2,2,0,0,0-.55-1.74l-8-8.16a1,1,0,0,1-.24-1,1,1,0,0,1,.82-.69l10.88-1.67a2,2,0,0,0,1.52-1.14l4.8-10.26a1,1,0,0,1,.92-.59,1,1,0,0,1,.93.59l4.82,10.25a2.05,2.05,0,0,0,1.52,1.14l10.89,1.65a1,1,0,0,1,.57,1.72l-8,8.17a2,2,0,0,0-.54,1.74L31.6,37.54a1,1,0,0,1-.23.82,1,1,0,0,1-.78.36,1,1,0,0,1-.49-.13L20.5,33.3a2.06,2.06,0,0,0-1-.25,2.1,2.1,0,0,0-1,.25L9,38.61A1,1,0,0,1,8.47,38.75Z" transform="translate(0 -0.33)"/><path class="cls-2" d="M19.49,1.33a.5.5,0,0,1,.47.3l4.83,10.25a2.52,2.52,0,0,0,1.9,1.42L37.57,15a.53.53,0,0,1,.42.35.51.51,0,0,1-.12.53L29.9,24a2.55,2.55,0,0,0-.68,2.17L31.1,37.62A.46.46,0,0,1,31,38a.53.53,0,0,1-.4.19.57.57,0,0,1-.25-.06l-9.6-5.3a2.56,2.56,0,0,0-1.21-.31,2.47,2.47,0,0,0-1.22.32L8.72,38.18a.59.59,0,0,1-.25.07.54.54,0,0,1-.4-.2A.49.49,0,0,1,8,37.64L9.81,26.19A2.55,2.55,0,0,0,9.13,24l-8-8.16A.51.51,0,0,1,1,15.33.49.49,0,0,1,1.44,15l10.88-1.68a2.51,2.51,0,0,0,1.9-1.42L19,1.63a.52.52,0,0,1,.47-.3m0-1a1.5,1.5,0,0,0-1.37.88l-4.8,10.26a1.51,1.51,0,0,1-1.15.85L1.29,14a1.52,1.52,0,0,0-.86,2.56l8,8.16A1.51,1.51,0,0,1,8.82,26L7,37.48a1.52,1.52,0,0,0,1.5,1.77,1.44,1.44,0,0,0,.73-.2l9.59-5.31a1.52,1.52,0,0,1,1.47,0L29.86,39a1.52,1.52,0,0,0,2.23-1.57L30.21,26a1.51,1.51,0,0,1,.41-1.31l8-8.18A1.52,1.52,0,0,0,37.72,14L26.84,12.31a1.56,1.56,0,0,1-1.15-.85L20.87,1.21A1.51,1.51,0,0,0,19.49.33Z" transform="translate(0 -0.33)"/></svg>