<?xml version="1.0" encoding="iso-8859-1"?>
<!-- Generator: Adobe Illustrator 19.0.0, SVG Export Plug-In . SVG Version: 6.00 Build 0)  -->
<svg version="1.1" id="Layer_1" xmlns="http://www.w3.org/2000/svg" xmlns:xlink="http://www.w3.org/1999/xlink" x="0px" y="0px"
	 viewBox="0 0 512 512" style="enable-background:new 0 0 512 512;" xml:space="preserve">
<g>
	<polygon style="fill:#5D9CEC;" points="117.246,275 79.246,488 161.746,501.5 198.746,286.5 	"/>
	<polygon style="fill:#5D9CEC;" points="394.738,278.5 432.738,491.5 350.238,505 313.238,290 	"/>
</g>
<polygon style="fill:#E6E9ED;" points="310.238,27 281.738,13 225.246,13 198.746,34 180.746,72.5 158.246,161 138.996,273 
	172.246,278.5 180.746,275 198.746,178 213.746,88.5 227.746,58.5 259.246,53.5 290.738,66 296.238,93 284.738,129 258.246,135 
	215.746,120.5 206.746,168 228.746,178 275.238,180 322.738,151 345.238,114 345.238,74 "/>
<polygon style="fill:#CCD1D9;" points="350.41,121.344 306.895,160.672 328.41,282.016 376.41,275 "/>
<path d="M443.645,484.672l-7.406-42.016l0,0l0,0l-29.984-170.062c-1.031-5.812-6.562-9.688-12.359-8.656l-10.5,1.844L351.035,82.266
	c-2.109-14.703-7.656-28.797-16.422-41.328c-14.703-21-36.703-35.016-61.953-39.469C267.137,0.5,261.48,0,255.902,0
	c-46.609,0-86.312,33.359-94.422,79.328l-32.875,186.453l-10.5-1.844c-5.797-1.031-11.328,2.844-12.359,8.656L75.762,442.656l0,0
	l0,0l-7.406,42.016c-0.484,2.781,0.141,5.641,1.766,7.969c1.625,2.312,4.094,3.891,6.891,4.391l84.016,14.812
	c0.625,0.094,1.25,0.156,1.859,0.156c5.078,0,9.578-3.641,10.484-8.812l37.406-212.094c0.484-2.781-0.156-5.641-1.766-7.969
	c-1.625-2.312-4.109-3.875-6.891-4.375l-10.5-1.844l17.156-97.312c9.359,5.281,19.656,9,30.562,10.906
	c5.531,0.984,11.172,1.484,16.766,1.484l0,0c17.023,0,33.133-4.469,47.117-12.359l17.156,97.281l-10.5,1.844
	c-2.781,0.5-5.266,2.062-6.891,4.375c-1.609,2.328-2.25,5.188-1.766,7.969l37.406,212.094c0.906,5.172,5.406,8.812,10.484,8.812
	c0.609,0,1.234-0.062,1.859-0.156l84.016-14.812c2.797-0.5,5.266-2.078,6.891-4.391
	C443.504,490.312,444.129,487.453,443.645,484.672z M398.566,351.844c-2.688,0.469-5.188,1.969-6.875,4.391
	c-3.391,4.828-2.219,11.469,2.609,14.859c2.422,1.688,5.281,2.219,7.969,1.75l3.703,21c-2.688,0.484-5.188,1.984-6.875,4.406
	c-3.391,4.812-2.219,11.469,2.609,14.844c2.422,1.688,5.281,2.234,7.969,1.766l3.703,21l-21,3.703L373.504,332.5l21-3.703
	L398.566,351.844z M102.324,414.859c2.688,0.469,5.547-0.078,7.969-1.766c4.828-3.375,6-10.031,2.609-14.844
	c-1.688-2.422-4.188-3.922-6.875-4.406l3.703-21c2.688,0.469,5.562-0.062,7.969-1.75c4.828-3.391,6-10.031,2.625-14.859
	c-1.703-2.422-4.203-3.922-6.891-4.391l4.062-23.047l21,3.703L119.62,439.561l-21-3.703L102.324,414.859z M154.23,488.969
	l-63.016-11.094l3.703-21l31.5,5.547c0.625,0.109,1.234,0.172,1.859,0.172c2.172,0,4.312-0.672,6.109-1.938
	c2.312-1.625,3.891-4.094,4.391-6.875l22.578-128.078c1.016-5.797-2.844-11.328-8.656-12.359l-31.5-5.547l3.703-21.016
	l63.016,11.125L154.23,488.969z M224.496,90.438L224.496,90.438L224.496,90.438C227.199,75.109,240.434,64,255.949,64
	c1.875,0,3.75,0.156,5.609,0.484c8.422,1.484,15.742,6.156,20.648,13.156c4.891,7,6.781,15.484,5.297,23.906
	C284.801,116.875,271.574,128,256.059,128c-1.875,0-3.75-0.172-5.609-0.5C233.074,124.438,221.434,107.812,224.496,90.438z
	 M256.105,170.656c-4.344,0-8.75-0.391-13.062-1.156c-11.078-1.938-21.359-6.281-30.266-12.625l4.312-24.469
	c7.625,8.156,17.844,14.016,29.656,16.094c3.078,0.547,6.203,0.812,9.312,0.812c25.883,0,47.945-18.531,52.445-44.062
	c2.469-14.031-0.656-28.188-8.828-39.844s-20.391-19.453-34.414-21.922c-3.078-0.547-6.203-0.828-9.312-0.828
	c-25.891,0-47.953,18.531-52.453,44.078l0,0l0,0L170.62,273.187l-21.016-3.688L182.495,83.03
	c6.297-35.75,37.172-61.703,73.406-61.703c4.344,0,8.75,0.391,13.062,1.141c19.633,3.469,36.742,14.375,48.18,30.703
	c6.234,8.906,10.375,18.859,12.281,29.234c0.031,0.203,0.047,0.406,0.078,0.625l0.406,2.281c1.109,7.75,1,15.719-0.406,23.641
	c-3.094,17.547-12.109,32.734-24.766,43.641c-0.531,0.375-1.016,0.781-1.469,1.25C290.348,164.406,273.863,170.656,256.105,170.656z
	 M322.379,165.406c6.938-6.656,12.906-14.359,17.625-22.906l22.391,127l-21.016,3.688L322.379,165.406z M357.77,488.969
	l-33.688-191.062l10.5-1.859l0,0l0,0l42.016-7.406l0,0l0,0l10.5-1.859l3.703,21.016l-31.5,5.547
	c-5.812,1.031-9.672,6.562-8.656,12.359l22.578,128.078c0.5,2.781,2.062,5.25,4.391,6.875c1.797,1.266,3.938,1.938,6.109,1.938
	c0.625,0,1.234-0.062,1.859-0.172l31.5-5.547l3.703,21L357.77,488.969z"/>
<g>
</g>
<g>
</g>
<g>
</g>
<g>
</g>
<g>
</g>
<g>
</g>
<g>
</g>
<g>
</g>
<g>
</g>
<g>
</g>
<g>
</g>
<g>
</g>
<g>
</g>
<g>
</g>
<g>
</g>
</svg>
